<?xml version="1.0" encoding="utf-8"?>
<!-- Svg Vector Icons : http://www.onlinewebfonts.com/icon -->
<!DOCTYPE svg PUBLIC "-//W3C//DTD SVG 1.1//EN" "http://www.w3.org/Graphics/SVG/1.1/DTD/svg11.dtd">
<svg version="1.1" xmlns="http://www.w3.org/2000/svg" xmlns:xlink="http://www.w3.org/1999/xlink" x="0px" y="0px" viewBox="0 0 256 256" enable-background="new 0 0 256 256" xml:space="preserve">
<metadata> Svg Vector Icons : http://www.onlinewebfonts.com/icon </metadata>
<g><g><g><g><path fill="#000000" d="M112.7,99.8c12.6-12.5,29.3-19.5,47-19.5c17.8,0,34.4,6.9,46.9,19.5c2.7,2.7,5.5,5.6,7.1,8.6V67.9c0-11.3-9.2-20.5-20.5-20.5H132l-0.2-0.4l-7.9-15.7c-2.6-5.2-7.9-8.4-13.7-8.4H41.9c-6.3,0-11.4,5.1-11.4,11.4V47v0.4C19.2,47.4,10,56.6,10,67.9v94c0,11.3,9.2,20.5,20.5,20.5h73.2c-6.8-10.3-10.5-22.8-10.5-35.7C93.3,128.9,100.2,112.4,112.7,99.8z"/><path fill="#000000" d="M156.5,169.4c-14.7-2.6-18.4-16.8-18.5-17.5c-0.7-3-3.7-4.9-6.8-4.2c-3,0.7-4.9,3.8-4.2,6.8c0.2,0.9,5.4,22,27.5,26c0.3,0,0.7,0.1,1,0.1c2.7,0,5.1-1.9,5.5-4.6C161.6,172.9,159.6,170,156.5,169.4z"/><path fill="#000000" d="M243.4,206.5l-21.6-21.6c-3.3-3.3-8.7-3.3-12,0l-5.9-5.9c15.6-21.4,13.8-51.7-5.5-71c-10.3-10.3-24.1-16-38.7-16c-14.6,0-28.4,5.7-38.7,16c-10.4,10.4-16,24.1-16,38.7c0,14.6,5.7,28.4,16,38.7c10.3,10.3,24.1,16,38.7,16c11.8,0,23-3.7,32.3-10.5l5.9,5.9l0,0c-3.3,3.3-3.3,8.7,0,12l21.6,21.6c3.5,3.5,9.2,3.5,12.8,0l11.2-11.2c1.7-1.7,2.6-4,2.6-6.4C246,210.5,245.1,208.2,243.4,206.5z M186.5,173.5c-7.1,7.2-16.6,11.1-26.8,11.1c-10.1,0-19.6-3.9-26.7-11.1c-7.2-7.1-11.1-16.6-11.1-26.7s3.9-19.6,11.1-26.8c4-4.1,8.9-7.1,14.2-8.9c4-1.4,8.2-2.1,12.6-2.1c10.1,0,19.6,3.9,26.8,11.1c5,5,8.3,11.1,9.9,17.5C199.5,150.1,196.2,163.8,186.5,173.5z"/><path fill="#000000" d="M133.7,130.8c3.1,0,5.5,2.5,5.5,5.5c0,3.1-2.5,5.5-5.5,5.5s-5.5-2.5-5.5-5.5C128.2,133.3,130.6,130.8,133.7,130.8z"/></g></g><g></g><g></g><g></g><g></g><g></g><g></g><g></g><g></g><g></g><g></g><g></g><g></g><g></g><g></g><g></g></g></g>
</svg>